<svg xmlns="http://www.w3.org/2000/svg" viewBox="0 0 500 500"><g id="freepik--background-complete--inject-9"><rect x="73.55" y="67.08" width="160.32" height="245.83" style="fill:#ebebeb"></rect><rect x="82.29" y="76.93" width="67.71" height="109.34" style="fill:#fff"></rect><rect x="157.44" y="76.93" width="67.7" height="109.34" style="fill:#fff"></rect><rect x="82.29" y="193.72" width="67.71" height="109.34" style="fill:#fff"></rect><rect x="157.44" y="193.72" width="67.7" height="109.34" style="fill:#fff"></rect><polygon points="123.28 76.93 82.29 117.92 82.29 93.74 99.1 76.93 123.28 76.93" style="fill:#ebebeb"></polygon><polygon points="82.29 299.03 150 231.32 150 255.49 102.42 303.07 82.29 303.07 82.29 299.03" style="fill:#ebebeb"></polygon><polygon points="211.77 193.72 157.44 248.06 157.44 223.88 187.59 193.72 211.77 193.72" style="fill:#ebebeb"></polygon><polygon points="225.14 156.18 225.14 180.36 219.22 186.28 195.04 186.28 225.14 156.18" style="fill:#ebebeb"></polygon><polygon points="225.14 277.74 225.14 301.91 223.98 303.07 199.81 303.07 225.14 277.74" style="fill:#ebebeb"></polygon><polygon points="86.17 193.72 98.25 193.72 82.29 209.68 82.29 197.6 86.17 193.72" style="fill:#ebebeb"></polygon><polygon points="93.61 186.28 150 129.89 150 141.98 105.7 186.28 93.61 186.28" style="fill:#ebebeb"></polygon><polygon points="215.04 76.93 157.44 134.53 157.44 122.45 202.96 76.93 215.04 76.93" style="fill:#ebebeb"></polygon><polygon points="143.15 76.93 82.29 137.79 82.29 134.77 140.12 76.93 143.15 76.93" style="fill:#ebebeb"></polygon><polygon points="120.13 303.07 150 273.2 150 276.22 123.15 303.07 120.13 303.07" style="fill:#ebebeb"></polygon><polygon points="225.14 198.06 225.14 201.08 157.44 268.78 157.44 265.75 225.14 198.06" style="fill:#ebebeb"></polygon><circle cx="372.47" cy="120.05" r="45.99" transform="translate(208.3 475.28) rotate(-83.06)" style="fill:#ebebeb"></circle><circle cx="374.58" cy="121.07" r="43.89" style="fill:#dbdbdb"></circle><circle cx="374.58" cy="121.07" r="41.12" style="fill:#fff"></circle><path d="M414.76,112.35c-18.72,11.34-49.49,30-66.69,40.15a41,41,0,0,1-11.23-15.11l56.88-52.72A41.15,41.15,0,0,1,414.76,112.35Z" style="fill:#ebebeb;opacity:0.5"></path><path d="M415.67,122.51A40.92,40.92,0,0,1,413,135.87l-51.28,24.25a41.87,41.87,0,0,1-6.48-2.78C370.68,148.38,399,132.1,415.67,122.51Z" style="fill:#ebebeb;opacity:0.5"></path><rect x="374.18" y="82.94" width="0.79" height="6.23" style="fill:#c7c7c7"></rect><rect x="356.68" y="87.63" width="0.8" height="6.23" transform="translate(2.46 190.68) rotate(-30)" style="fill:#c7c7c7"></rect><rect x="343.86" y="100.45" width="0.79" height="6.23" transform="translate(82.42 349.9) rotate(-60)" style="fill:#c7c7c7"></rect><rect x="336.45" y="120.67" width="6.23" height="0.79" style="fill:#c7c7c7"></rect><rect x="341.14" y="138.18" width="6.23" height="0.79" transform="translate(-23.17 190.71) rotate(-30)" style="fill:#c7c7c7"></rect><rect x="353.96" y="151" width="6.23" height="0.8" transform="translate(47.56 385.12) rotate(-60.03)" style="fill:#c7c7c7"></rect><rect x="374.18" y="152.97" width="0.79" height="6.23" style="fill:#c7c7c7"></rect><rect x="391.69" y="148.28" width="0.8" height="6.23" transform="translate(-23.17 216.33) rotate(-30)" style="fill:#c7c7c7"></rect><rect x="404.51" y="135.46" width="0.79" height="6.23" transform="translate(82.42 419.93) rotate(-60)" style="fill:#c7c7c7"></rect><rect x="406.48" y="120.67" width="6.23" height="0.79" style="fill:#c7c7c7"></rect><rect x="401.79" y="103.17" width="6.23" height="0.79" transform="translate(2.48 216.38) rotate(-30.01)" style="fill:#c7c7c7"></rect><rect x="388.97" y="90.35" width="6.23" height="0.8" transform="translate(117.61 385.08) rotate(-60.03)" style="fill:#c7c7c7"></rect><polygon points="375.18 85.76 376.53 123.85 372.63 123.8 374.12 85.75 375.18 85.76" style="fill:#c7c7c7"></polygon><polygon points="398.9 107.79 373.28 124.14 371.42 120.72 398.39 106.86 398.9 107.79" style="fill:#a6a6a6"></polygon><circle cx="374.58" cy="121.07" r="1.33" style="fill:#c7c7c7"></circle></g><g id="freepik--Desk--inject-9"><rect x="18.72" y="357.7" width="462.55" height="126.67" style="fill:#ebebeb"></rect><polygon points="18.67 357.7 76.49 357.45 134.31 357.36 249.94 357.18 365.58 357.36 423.4 357.45 481.22 357.7 423.4 357.96 365.58 358.05 249.94 358.23 134.31 358.05 76.49 357.96 18.67 357.7" style="fill:#263238"></polygon></g><g id="freepik--Sheets--inject-9"><polygon points="394.46 432.75 424.63 414.94 462.96 427.77 431.49 446.89 394.46 432.75" style="fill:#f7f7f7"></polygon><path d="M430.29,441.93c1.86-1.37,3.77-2.64,5.69-3.9s3.87-2.48,5.83-3.68,3.93-2.37,5.94-3.48l3-1.67c1-.53,2-1.08,3.07-1.58-.92.69-1.88,1.33-2.82,2l-2.87,1.91c-1.91,1.27-3.87,2.47-5.82,3.67s-3.94,2.37-5.95,3.48S432.36,440.91,430.29,441.93Z" style="fill:#dbdbdb"></path><path d="M435.28,434.69A61.15,61.15,0,0,1,442,430a59.15,59.15,0,0,1,7.27-3.83,67.21,67.21,0,0,1-14,8.52Z" style="fill:#dbdbdb"></path><path d="M421.2,439c1.86-1.37,3.77-2.65,5.69-3.91s3.87-2.47,5.83-3.68,3.93-2.36,5.94-3.48l3-1.67c1-.52,2-1.08,3.07-1.58-.92.7-1.88,1.33-2.82,2l-2.87,1.91c-1.91,1.27-3.87,2.47-5.82,3.68s-3.94,2.36-5.95,3.47S423.27,438,421.2,439Z" style="fill:#dbdbdb"></path><path d="M420,435.53c3.16-2.38,6.47-4.5,9.82-6.55s6.78-4,10.35-5.71c-3.16,2.39-6.47,4.51-9.83,6.56S423.61,433.82,420,435.53Z" style="fill:#dbdbdb"></path><path d="M424,428.92a42.89,42.89,0,0,1,5.58-4,41.22,41.22,0,0,1,6.1-3.12A47.09,47.09,0,0,1,424,428.92Z" style="fill:#dbdbdb"></path><polygon points="304.04 412.78 351.7 394.17 397.69 421.89 350.27 441.18 304.04 412.78" style="fill:#f7f7f7"></polygon><path d="M349.6,435.53c3.11-1.49,6.25-2.87,9.4-4.24s6.33-2.68,9.51-4,6.37-2.56,9.59-3.77l4.82-1.82c1.63-.56,3.24-1.17,4.87-1.71-1.55.75-3.12,1.45-4.68,2.17l-4.72,2.07c-3.15,1.38-6.33,2.68-9.51,4s-6.37,2.56-9.59,3.77S352.86,434.42,349.6,435.53Z" style="fill:#dbdbdb"></path><path d="M361.82,425.65c3.39-1.8,6.91-3.33,10.45-4.78s7.13-2.79,10.82-3.87a131.94,131.94,0,0,1-21.27,8.65Z" style="fill:#dbdbdb"></path><path d="M344.9,427.62c2.72-1.32,5.47-2.55,8.23-3.75s5.54-2.37,8.33-3.52,5.59-2.24,8.42-3.29l4.23-1.58c1.43-.49,2.84-1,4.28-1.47-1.35.67-2.73,1.28-4.09,1.93l-4.13,1.83c-2.76,1.22-5.55,2.36-8.33,3.51s-5.6,2.24-8.42,3.29S347.77,426.68,344.9,427.62Z" style="fill:#dbdbdb"></path><path d="M342.68,423.62c2.51-1.24,5.06-2.38,7.61-3.51s5.13-2.19,7.71-3.26,5.18-2.08,7.8-3l3.93-1.45c1.32-.45,2.63-.93,4-1.35-1.24.63-2.52,1.2-3.78,1.8l-3.82,1.71c-2.55,1.13-5.13,2.2-7.71,3.26s-5.18,2.08-7.8,3S345.35,422.76,342.68,423.62Z" style="fill:#dbdbdb"></path><path d="M330.81,423.54c3.1-1.48,6.25-2.87,9.4-4.23s6.33-2.69,9.5-4,6.38-2.57,9.6-3.78l4.82-1.81c1.62-.57,3.23-1.17,4.87-1.71-1.55.75-3.12,1.44-4.68,2.16l-4.73,2.07c-3.14,1.38-6.32,2.69-9.5,4s-6.37,2.57-9.59,3.77S334.07,422.44,330.81,423.54Z" style="fill:#dbdbdb"></path><path d="M330.42,418.79c2.74-1.33,5.53-2.57,8.32-3.79s5.61-2.4,8.43-3.56,5.66-2.27,8.51-3.33l4.29-1.6c1.44-.49,2.87-1,4.33-1.49-1.37.68-2.76,1.3-4.14,2L356,408.82c-2.79,1.23-5.61,2.39-8.42,3.55s-5.66,2.27-8.52,3.34S333.32,417.84,330.42,418.79Z" style="fill:#dbdbdb"></path><path d="M321.41,417.55c3.11-1.49,6.25-2.87,9.41-4.24s6.32-2.68,9.5-4,6.37-2.56,9.59-3.77l4.83-1.81c1.62-.57,3.23-1.18,4.86-1.72-1.55.75-3.12,1.45-4.68,2.17l-4.72,2.07c-3.15,1.38-6.33,2.68-9.5,4s-6.38,2.56-9.6,3.77S324.67,416.45,321.41,417.55Z" style="fill:#dbdbdb"></path><path d="M332.33,408.2c3.62-1.89,7.34-3.5,11.1-5.05s7.56-3,11.47-4.12c-3.61,1.89-7.34,3.5-11.09,5.05S336.24,407,332.33,408.2Z" style="fill:#dbdbdb"></path></g><g id="freepik--Character--inject-9"><path d="M119.23,269.23c11,14.25,30.6,20,47.81,21.5,17.54,1.48,37.33.21,53.39-7.65,7-3.43,13.54-8.51,17.72-15.2,4.5-7.17,5.16-14.8.6-21.69-3.68-5.57-11.86-9.65-11.78-14.68s4.24-8.92,5.46-13.73c2.08-8.22-2.24-14.5-7.87-20-13.32-13-9.33-29.7-17.37-45.68-4.57-9.09-17.66-25.93-41.8-18.82-9.17,2.71-15.57,11-19.45,19.56-4.56,10.11-1.7,23.58-7.22,33.28-4.73,8.27-11.44,9.48-16,18.17-2,3.76-3,8.18.9,17.23,1.4,3.28,2.85,8.25,1.44,12.09-2,5.32-8.29,7.65-10.46,13.19C111.65,254.47,114.37,262.94,119.23,269.23Z" style="fill:#263238"></path><path d="M232.76,269.9c8.26-1.21,12-12.6,6.88-18.55-3.24-3.77-8.17-5.58-11.42-9.33-5.34-6.18-.38-11.58,2.67-17.5,6.61-12.82-1.95-21.71-11-29.87-6.88-6.2-8.18-13.18-8.48-22.13,0-.13.23-.15.24,0,.53,6.59,1.33,13.07,5.79,18.3,3.64,4.25,8.52,7.2,12,11.61,5.89,7.39,6.49,15.31,2.11,23.56-1.26,2.36-3.62,5-4.16,7.63-1.26,6.14,3.27,9.39,7.57,12.49,3.3,2.38,7,5,8.15,9.15,1.8,6.25-3.86,14.59-10.26,15.15C232.54,270.43,232.42,270,232.76,269.9Z" style="fill:#263238"></path><path d="M228.17,276.1c5.1-3,10.63-5.71,13.69-11.06,4.52-7.91-.87-14-5.91-19.76-2.16-2.46-4-4.92-3.79-8.33.25-5.13,4-9.37,4.71-14.45,1.65-12.11-10.1-19.63-16-28.62-6-9.18-7.79-19.85-9.85-30.39,0-.22.31-.3.35-.07,2.72,13.47,6.46,26.13,15.71,36.63,6.45,7.31,13.32,15.24,10.12,25.63-.79,2.56-2.32,4.87-3.05,7.42-1.45,5.07-.14,8.39,3.14,12.08s6.81,7.19,7.34,12.17c1,9.66-8.6,15.92-16.12,19.51A.43.43,0,0,1,228.17,276.1Z" style="fill:#263238"></path><path d="M112.47,243.79c4.13-5.83,10.66-8.69,9-17.07-1.14-5.78-4.21-10.41-3-16.51,1-5.06,4.22-9,8-12.25,4.83-4.2,10.17-7.58,13.71-13.07,3.86-6,5.62-13,7.43-19.82,0-.13.27-.08.24.06-1.91,9.24-4.24,18.72-11.22,25.59-3.63,3.59-8,6.3-11.65,9.92-6.49,6.53-6.45,13.72-3.7,21.93,1.26,3.78,2.38,7.56.66,11.38s-5.34,6.19-7.88,9.39c-10.79,13.57,5.65,30.92,19.28,33.46.61.11.54,1.06-.09,1-10.2-1.59-21-11-23.19-21.09A16.12,16.12,0,0,1,112.47,243.79Z" style="fill:#263238"></path><path d="M112.91,251.08c.11-6.11,3.89-9.47,6.82-14.25,4.6-7.52-.15-15-.72-22.9-.39-5.53,1.84-10.22,5.24-14.26,4.57-5.44,10.42-9.31,14.16-15.54A39.69,39.69,0,0,0,143.87,162c0-.15.21-.12.22,0,.78,10.88-2.54,21.1-9.77,28.87-4.58,4.93-10.76,9-13.32,15.58-2.72,7,.81,13.45,1.75,20.45a15.57,15.57,0,0,1-2.94,11.79c-1.85,2.61-4.11,5-5.13,8.15-1.39,4.27-.48,9,1.26,13.08,5.48,12.83,18.87,20.89,31.63,23,.45.07.41.81,0,.74A44.44,44.44,0,0,1,118.31,266C115.23,261.76,112.81,256.48,112.91,251.08Z" style="fill:#263238"></path><polygon points="150.42 409.88 287.22 373.86 350.87 407.98 217.05 452.56 150.42 409.88" style="fill:#FFC727"></polygon><path d="M158.9,409.27l61,39.21,125.41-41.69-61.53-32.68s-37.53,4.94-39.28,5.48-18.3,7.42-18.3,7.42-23.22,4-24.8,4.57S158.9,409.27,158.9,409.27Z" style="fill:#f7f7f7"></path><polygon points="226.21 387.01 233.66 391.84 241.06 396.73 255.8 406.62 270.44 416.65 277.73 421.72 284.97 426.85 277.52 422.02 270.12 417.13 255.38 407.24 240.74 397.21 233.45 392.14 226.21 387.01" style="fill:#dbdbdb"></polygon><path d="M237.86,415.59c1.58-.52,3.19-1,4.8-1.38s3.23-.81,4.85-1.19,3.26-.72,4.9-1,3.28-.61,4.94-.83c-1.59.52-3.2,1-4.81,1.39s-3.23.81-4.85,1.18-3.24.72-4.88,1S239.53,415.37,237.86,415.59Z" style="fill:#dbdbdb"></path><path d="M209.88,431.92c4.13-2,8.3-3.87,12.47-5.74s8.37-3.69,12.57-5.52c2.09-.92,4.21-1.78,6.34-2.63a9.83,9.83,0,0,1,1.69-.5l1.68-.39,3.35-.75c4.48-.94,9-1.86,13.46-2.68-4.43,1.15-8.88,2.21-13.33,3.29l-3.33.79a25.11,25.11,0,0,0-3.26.89c-2.11.85-4.21,1.78-6.32,2.66l-12.63,5.35C218.35,428.46,214.13,430.22,209.88,431.92Z" style="fill:#dbdbdb"></path><path d="M214.15,434.72q6-2.91,12.08-5.68c4-1.88,8.11-3.66,12.17-5.48q3-1.35,6.14-2.63c.52-.21,1-.42,1.58-.62s1.1-.28,1.64-.41l3.26-.74c4.35-.92,8.71-1.81,13.09-2.59-4.31,1.13-8.63,2.16-13,3.21l-3.24.78c-.54.13-1.09.25-1.59.42s-1,.4-1.52.61l-6.12,2.64c-4.09,1.75-8.15,3.57-12.24,5.3S218.27,433,214.15,434.72Z" style="fill:#dbdbdb"></path><path d="M218.39,437c4.08-1.79,8.19-3.51,12.31-5.21s8.26-3.35,12.4-5c2.08-.81,4.12-1.64,6.28-2.36l6.44-1.8c4.3-1.16,8.6-2.32,12.94-3.38-4.24,1.4-8.5,2.69-12.77,4l-6.41,1.88c-2.06.7-4.14,1.57-6.22,2.35-4.16,1.59-8.29,3.26-12.46,4.83S222.58,435.51,218.39,437Z" style="fill:#dbdbdb"></path><path d="M279.82,416.74q5.7-2.78,11.55-5.16c1-.4,1.95-.81,2.94-1.18.5-.18,1-.36,1.53-.52l1.53-.4,6.11-1.63c4.06-1.09,8.15-2.12,12.23-3.18s8.16-2.07,12.26-3.08c-4.05,1.19-8.09,2.37-12.15,3.5s-8.11,2.3-12.18,3.4l-6.09,1.66-1.52.42c-.47.15-1,.34-1.46.53l-2.94,1.13C287.72,413.78,283.8,415.32,279.82,416.74Z" style="fill:#dbdbdb"></path><path d="M275.7,413.51q5.66-2.38,11.41-4.43c1.93-.68,3.83-1.4,5.83-1.93l5.9-1.61c3.93-1.08,7.88-2.11,11.82-3.16s7.89-2.05,11.85-3.05c-3.91,1.18-7.81,2.35-11.73,3.48s-7.84,2.28-11.77,3.37l-5.88,1.66c-1,.26-1.92.6-2.89.92l-2.9,1Q281.57,411.74,275.7,413.51Z" style="fill:#dbdbdb"></path><path d="M271.72,410.64c3.75-1.55,7.53-3,11.35-4.36,1.91-.67,3.8-1.38,5.76-2l5.91-1.45c3.94-1,7.88-1.87,11.83-2.79s7.89-1.81,11.85-2.68c-3.91,1.06-7.82,2.11-11.74,3.12s-7.84,2-11.77,3c-2,.5-3.94,1-5.88,1.49l-5.74,1.91Q277.54,408.89,271.72,410.64Z" style="fill:#dbdbdb"></path><path d="M268.32,408.51c3.6-1.94,7.29-3.64,11.06-5.22.47-.2.94-.39,1.43-.56a12.15,12.15,0,0,1,1.51-.42l3-.65,6-1.27c8-1.66,16-3.28,24-4.8-7.92,1.87-15.87,3.65-23.81,5.43l-6,1.31-3,.67a16.61,16.61,0,0,0-2.83,1C275.88,405.47,272.15,407.11,268.32,408.51Z" style="fill:#dbdbdb"></path><path d="M264.59,405.92c3.6-1.94,7.29-3.64,11.06-5.23.47-.2.94-.38,1.43-.55a10.41,10.41,0,0,1,1.52-.42l3-.65,6-1.27c8-1.66,15.95-3.29,23.95-4.81-7.92,1.88-15.87,3.66-23.81,5.44l-6,1.31-3,.67a16.61,16.61,0,0,0-2.83,1C272.15,402.88,268.42,404.51,264.59,405.92Z" style="fill:#dbdbdb"></path><path d="M260.86,403.32c3.6-1.93,7.29-3.63,11.06-5.22.47-.2.94-.38,1.43-.55a10.41,10.41,0,0,1,1.52-.42l3-.65,6-1.28c8-1.66,15.95-3.28,23.95-4.8-7.92,1.88-15.87,3.66-23.81,5.43l-6,1.32-3,.67a17.48,17.48,0,0,0-2.83,1C268.42,400.29,264.69,401.92,260.86,403.32Z" style="fill:#dbdbdb"></path><path d="M257.13,400.73c3.6-1.93,7.29-3.64,11.06-5.22.47-.2.94-.39,1.43-.56a10.36,10.36,0,0,1,1.52-.41l3-.66,6-1.27c8-1.66,16-3.28,24-4.8-7.92,1.88-15.87,3.66-23.81,5.43l-6,1.32-3,.67a16,16,0,0,0-2.83,1C264.69,397.7,261,399.33,257.13,400.73Z" style="fill:#dbdbdb"></path><path d="M252.32,398.65c3.6-1.94,7.29-3.64,11.06-5.23.47-.19.94-.38,1.43-.55a11.83,11.83,0,0,1,1.52-.42l3-.65,6-1.27c8-1.66,16-3.28,24-4.8-7.92,1.87-15.87,3.65-23.81,5.43l-6,1.31-3,.67a16.91,16.91,0,0,0-2.83,1C259.88,395.61,256.15,397.25,252.32,398.65Z" style="fill:#dbdbdb"></path><path d="M247.64,396.59c3.6-1.94,7.29-3.64,11.06-5.23.47-.2.94-.38,1.43-.55a10.41,10.41,0,0,1,1.52-.42l3-.65,6-1.27c8-1.66,15.95-3.29,23.95-4.8-7.92,1.87-15.87,3.65-23.81,5.43l-6,1.31-3,.67a16.91,16.91,0,0,0-2.83,1C255.2,393.55,251.47,395.19,247.64,396.59Z" style="fill:#dbdbdb"></path><path d="M243.91,394c3.59-1.94,7.28-3.64,11-5.22.47-.2.94-.39,1.43-.55a9.29,9.29,0,0,1,1.52-.42l3-.6,6-1.17c8-1.52,16-3,24-4.36-7.95,1.73-15.91,3.36-23.87,5l-6,1.21-3,.62a16.46,16.46,0,0,0-2.82,1C251.46,391,247.74,392.59,243.91,394Z" style="fill:#dbdbdb"></path><path d="M240.18,391.4c3.59-1.93,7.27-3.63,11-5.21.47-.2.94-.38,1.43-.55a9,9,0,0,1,1.52-.41l3-.55,6-1.05c8-1.35,16-2.66,24-3.85-8,1.56-15.95,3-23.93,4.48l-6,1.09-3,.57a15.05,15.05,0,0,0-2.81,1C247.72,388.38,244,390,240.18,391.4Z" style="fill:#dbdbdb"></path><path d="M236.45,388.81c3.58-1.92,7.26-3.62,11-5.2.47-.2.94-.39,1.43-.55a7.74,7.74,0,0,1,1.52-.41l3-.46,6-.86c4-.56,8-1.05,12.05-1.57s8-1,12.06-1.44c-8,1.27-16,2.45-24,3.65l-6,.9-3,.48a14.41,14.41,0,0,0-2.8.94C244,385.79,240.27,387.41,236.45,388.81Z" style="fill:#dbdbdb"></path><path d="M222.72,440.65c4.17-1.7,8.37-3.32,12.58-4.93s8.44-3.15,12.66-4.72c2.12-.78,4.22-1.53,6.39-2.25l6.47-1.95c4.32-1.25,8.64-2.51,13-3.68-4.26,1.49-8.54,2.88-12.83,4.27l-6.44,2c-2.1.71-4.22,1.53-6.34,2.27l-12.72,4.55C231.24,437.74,227,439.22,222.72,440.65Z" style="fill:#dbdbdb"></path><path d="M282.9,419.9c4.22-1.61,8.47-3.15,12.72-4.67s8.54-3,12.81-4.46c2.14-.74,4.26-1.44,6.46-2.12l6.53-1.81c4.36-1.17,8.72-2.34,13.11-3.42-4.3,1.4-8.62,2.71-12.95,4l-6.51,1.9c-2.12.66-4.27,1.44-6.41,2.14l-12.86,4.29C291.51,417.17,287.21,418.57,282.9,419.9Z" style="fill:#dbdbdb"></path><path d="M170.67,243c6.78,20.66,44.82,72.41,66.41,75.58,14.08,2.06,65.33-8.17,77.21-14.48,13.91-7.38-6-49.75-15.17-48.36-12.26,1.86-43.67,14.53-54.19,14.92-6.05.23-35.5-24.58-63.52-47.62C170.56,214.15,166.62,230.7,170.67,243Z" style="fill:#dd6a57"></path><path d="M312.65,250c7.42-.21,15.9-1.05,23.25,1.47s10.35,14.25,9.45,17.05-9.3,19.33-16.7,16.95,1.38-14.33,1.6-16,.57-3.68-.88-4S299.79,269,299.79,269Z" style="fill:#dd6a57"></path><path d="M312.8,251.19c.42.13,22.74-1.3,30.09,1.21s10.35,14.26,9.45,17-9.3,19.34-16.69,17,1.38-14.34,1.59-16,.57-3.68-.87-4-29.59,3.43-29.59,3.43Z" style="fill:#dd6a57"></path><path d="M333.44,284.66c-.54-1.46-.13-3.27.17-4.76a16.18,16.18,0,0,1,1.79-4.64,26.47,26.47,0,0,0,2.21-3.78,8.58,8.58,0,0,0,.22-4.24c-.23-1.22-1.43-1.21-2.47-1.18a37.59,37.59,0,0,0-4.61.52c-1.64.25-3.27.53-4.9.8a41.46,41.46,0,0,0-5.06,1c-.12,0-.11.24,0,.23a41.08,41.08,0,0,0,4.29-.48c1.62-.21,3.24-.4,4.86-.58s3-.4,4.53-.54a4.55,4.55,0,0,1,2.14,0c.52.31.35,1.79.33,2.28a7.23,7.23,0,0,1-1.54,3.91,22.3,22.3,0,0,0-2.07,3.81,11.46,11.46,0,0,0-.93,4,16.08,16.08,0,0,0,.74,3.75C333.21,284.91,333.5,284.83,333.44,284.66Z" style="fill:#263238"></path><path d="M283.1,263.05s26.5-12.08,32-14.42c10.95-4.69,51.73-7.81,56.92-6.73s3.7,12-24.21,14.79c-14.7,1.49-19.37,8.14-20.45,12.31s.39,13.06,7.33,15.08,14.64-6.58,21.32-5.66-1.22,11.17-7.84,16.43S331.63,303,325,303.34s-27.64,2.33-27.64,2.33Z" style="fill:#dd6a57"></path><path d="M344.75,282c-3.24,1.18-7,2.83-10.47,1.86s-5.12-4-5.83-7.43-.61-7,1.25-10.09a16.88,16.88,0,0,1,7.2-6.21,41,41,0,0,1,11.33-3.2c.17,0,.11-.29-.07-.27-3.62.4-14.77,1.26-19.54,9.33-1.95,3.29-1.9,6.81-1.2,10.31.64,3.23,2,6.59,5.26,7.93,4,1.64,8.52-.54,12.24-2.07C345.08,282.09,344.92,281.93,344.75,282Z" style="fill:#263238"></path><path d="M227,257.84s-9.66,9.33-18.43,17.82c-6.9,6.73-13.27,12.93-13.87,13.65a284.69,284.69,0,0,1-22.64-42.53c-8.42-20.15-1.4-29.48,8.09-26.4a17.16,17.16,0,0,1,4.08,2C195.56,229.9,227,257.84,227,257.84Z" style="fill:#FFC727"></path><path d="M169.23,238.49a.87.87,0,1,1-.87-.87A.87.87,0,0,1,169.23,238.49Zm12.5-.87a.87.87,0,1,0,.88.87A.87.87,0,0,0,181.73,237.62Zm13.38,0a.87.87,0,1,0,.87.87A.87.87,0,0,0,195.11,237.62Zm-20.06-9.73a.87.87,0,1,0,.87.87A.87.87,0,0,0,175.05,227.89Zm13.37,0a.87.87,0,1,0,.87.87A.87.87,0,0,0,188.42,227.89Zm-6.69,28.55a.88.88,0,1,0,.88.88A.87.87,0,0,0,181.73,256.44Zm13.38,0a.88.88,0,1,0,.87.88A.87.87,0,0,0,195.11,256.44Zm13.37,0a.88.88,0,1,0,.87.88A.87.87,0,0,0,208.48,256.44Zm13.37,0a.88.88,0,1,0,.88.88A.87.87,0,0,0,221.85,256.44Zm-46.8-9.73a.87.87,0,1,0,.87.87A.87.87,0,0,0,175.05,246.71Zm13.37,0a.87.87,0,1,0,.87.87A.87.87,0,0,0,188.42,246.71Zm13.37,0a.87.87,0,1,0,.88.87A.87.87,0,0,0,201.79,246.71Zm12.76.25a.87.87,0,1,0,1.32,1.14Zm-19.44,28.31a.87.87,0,1,0,.87.87A.87.87,0,0,0,195.11,275.27Zm-6.69-9.74a.88.88,0,1,0,.87.87A.87.87,0,0,0,188.42,265.53Zm13.37,0a.88.88,0,1,0,.88.87A.87.87,0,0,0,201.79,265.53Zm13.38,0a.88.88,0,1,0,.87.87A.88.88,0,0,0,215.17,265.53Z" style="fill:#fff"></path><path d="M211.59,272.74l-3,2.92c-6.9,6.73-13.28,12.93-13.87,13.65a284.69,284.69,0,0,1-22.64-42.53c-.49-1.18-.94-2.33-1.33-3.45-.21-.6-.41-1.19-.59-1.77-5.2-16.53,1.38-24,10-21.18l.18.07Z" style="fill:#263238"></path><path d="M201,353.1l-2.85-47.72s12.84-14.2,10-27c-1.43-6.5-23.58-55.87-25.75-57.9-8.73-8.13-23.46-4.89-29.5-.32-33.48,25.3-57.07,79.59-68.39,133Z" style="fill:#FFC727"></path><path d="M201,353.1l-2.85-47.72s12.84-14.2,10-27c-1.43-6.5-23.58-55.87-25.75-57.9-8.73-8.13-23.46-4.89-29.5-.32-33.48,25.3-57.07,79.59-68.39,133Z" style="fill:#FFC727"></path><path d="M198.1,305.38,201,353.1H84.45c11.32-53.37,34.91-107.66,68.39-133a19.57,19.57,0,0,1,4.24-2.37c7.14-3,18.18-3.91,25.26,2.69,2.17,2,24.32,51.4,25.75,57.9C210.94,291.18,198.1,305.38,198.1,305.38Z" style="fill:#FFC727"></path><path d="M155.86,219.67a.87.87,0,1,1-.87-.87A.87.87,0,0,1,155.86,219.67Zm12.5-.87a.87.87,0,1,0,.87.87A.87.87,0,0,0,168.36,218.8Zm12.59.51a.87.87,0,0,0,.79,1.23.85.85,0,0,0,.5-.16A14.06,14.06,0,0,0,181,219.31Zm-39.33,18.31a.87.87,0,1,0,.87.87A.88.88,0,0,0,141.62,237.62Zm13.37,0a.87.87,0,1,0,.87.87A.87.87,0,0,0,155,237.62Zm13.37,0a.87.87,0,1,0,.87.87A.87.87,0,0,0,168.36,237.62Zm13.37,0a.87.87,0,1,0,.88.87A.87.87,0,0,0,181.73,237.62Zm-33.43-9.73a.87.87,0,1,0,.88.87A.87.87,0,0,0,148.3,227.89Zm13.38,0a.87.87,0,1,0,.87.87A.87.87,0,0,0,161.68,227.89Zm13.37,0a.87.87,0,1,0,.87.87A.87.87,0,0,0,175.05,227.89Zm-46.81,28.55a.88.88,0,1,0,.88.88A.87.87,0,0,0,128.24,256.44Zm13.38,0a.88.88,0,1,0,0,1.75.88.88,0,0,0,0-1.75Zm13.37,0a.88.88,0,1,0,.87.88A.87.87,0,0,0,155,256.44Zm13.37,0a.88.88,0,1,0,.87.88A.87.87,0,0,0,168.36,256.44Zm13.37,0a.88.88,0,1,0,.88.88A.87.87,0,0,0,181.73,256.44Zm13.38,0a.88.88,0,1,0,.87.88A.87.87,0,0,0,195.11,256.44Zm-60.18-9.73a.87.87,0,1,0,.87.87A.87.87,0,0,0,134.93,246.71Zm13.37,0a.87.87,0,1,0,.88.87A.87.87,0,0,0,148.3,246.71Zm13.38,0a.87.87,0,1,0,.87.87A.87.87,0,0,0,161.68,246.71Zm13.37,0a.87.87,0,1,0,.87.87A.87.87,0,0,0,175.05,246.71Zm13.37,0a.87.87,0,1,0,.87.87A.87.87,0,0,0,188.42,246.71Zm-73.55,28.56a.87.87,0,1,0,.87.87A.87.87,0,0,0,114.87,275.27Zm13.37,0a.87.87,0,1,0,.88.87A.87.87,0,0,0,128.24,275.27Zm13.38,0a.87.87,0,1,0,.87.87A.88.88,0,0,0,141.62,275.27Zm13.37,0a.87.87,0,1,0,.87.87A.87.87,0,0,0,155,275.27Zm13.37,0a.87.87,0,1,0,.87.87A.87.87,0,0,0,168.36,275.27Zm13.37,0a.87.87,0,1,0,.88.87A.87.87,0,0,0,181.73,275.27Zm13.38,0a.87.87,0,1,0,.87.87A.87.87,0,0,0,195.11,275.27Zm-73.55-9.74a.88.88,0,1,0,.87.87A.87.87,0,0,0,121.56,265.53Zm13.37,0a.88.88,0,1,0,.87.87A.87.87,0,0,0,134.93,265.53Zm13.37,0a.88.88,0,0,0,0,1.75.88.88,0,1,0,0-1.75Zm13.38,0a.88.88,0,1,0,.87.87A.87.87,0,0,0,161.68,265.53Zm13.37,0a.88.88,0,1,0,.87.87A.87.87,0,0,0,175.05,265.53Zm13.37,0a.88.88,0,1,0,.87.87A.87.87,0,0,0,188.42,265.53Zm13.37,0a.88.88,0,1,0,.88.87A.87.87,0,0,0,201.79,265.53Zm-99.62,28.89c-.19.46-.38.93-.56,1.4a.87.87,0,0,0,.76-.86A.82.82,0,0,0,102.17,294.42Zm12.7-.33a.87.87,0,1,0,.87.87A.87.87,0,0,0,114.87,294.09Zm13.37,0a.87.87,0,1,0,.88.87A.87.87,0,0,0,128.24,294.09Zm13.38,0a.87.87,0,1,0,.87.87A.88.88,0,0,0,141.62,294.09Zm13.37,0a.87.87,0,1,0,.87.87A.87.87,0,0,0,155,294.09Zm13.37,0a.87.87,0,1,0,.87.87A.87.87,0,0,0,168.36,294.09Zm13.37,0a.87.87,0,1,0,.88.87A.87.87,0,0,0,181.73,294.09Zm13.38,0a.87.87,0,1,0,.87.87A.87.87,0,0,0,195.11,294.09Zm-86.93-9.73a.87.87,0,1,0,.88.87A.87.87,0,0,0,108.18,284.36Zm13.38,0a.87.87,0,1,0,.87.87A.87.87,0,0,0,121.56,284.36Zm13.37,0a.87.87,0,1,0,.87.87A.87.87,0,0,0,134.93,284.36Zm13.37,0a.87.87,0,1,0,.88.87A.87.87,0,0,0,148.3,284.36Zm13.38,0a.87.87,0,1,0,.87.87A.87.87,0,0,0,161.68,284.36Zm13.37,0a.87.87,0,1,0,.87.87A.87.87,0,0,0,175.05,284.36Zm13.37,0a.87.87,0,1,0,.87.87A.87.87,0,0,0,188.42,284.36Zm13.37,0a.87.87,0,1,0,.88.87A.87.87,0,0,0,201.79,284.36ZM101.5,312.91a.88.88,0,1,0,.87.88A.87.87,0,0,0,101.5,312.91Zm13.37,0a.88.88,0,1,0,.87.88A.87.87,0,0,0,114.87,312.91Zm13.37,0a.88.88,0,1,0,.88.88A.87.87,0,0,0,128.24,312.91Zm13.38,0a.88.88,0,1,0,0,1.75.88.88,0,0,0,0-1.75Zm13.37,0a.88.88,0,1,0,.87.88A.87.87,0,0,0,155,312.91Zm13.37,0a.88.88,0,1,0,.87.88A.87.87,0,0,0,168.36,312.91Zm13.37,0a.88.88,0,1,0,.88.88A.87.87,0,0,0,181.73,312.91Zm13.38,0a.88.88,0,1,0,.87.88A.87.87,0,0,0,195.11,312.91Zm-86.93-9.73a.87.87,0,1,0,.88.87A.87.87,0,0,0,108.18,303.18Zm13.38,0a.87.87,0,1,0,.87.87A.87.87,0,0,0,121.56,303.18Zm13.37,0a.87.87,0,1,0,.87.87A.87.87,0,0,0,134.93,303.18Zm13.37,0a.87.87,0,1,0,.88.87A.87.87,0,0,0,148.3,303.18Zm13.38,0a.87.87,0,1,0,.87.87A.87.87,0,0,0,161.68,303.18Zm13.37,0a.87.87,0,1,0,.87.87A.87.87,0,0,0,175.05,303.18Zm13.37,0a.87.87,0,1,0,.87.87A.87.87,0,0,0,188.42,303.18ZM94.81,322a.88.88,0,1,0,.87.87A.87.87,0,0,0,94.81,322Zm6.69,9.74a.87.87,0,1,0,.87.87A.87.87,0,0,0,101.5,331.74Zm13.37,0a.87.87,0,1,0,.87.87A.87.87,0,0,0,114.87,331.74Zm13.37,0a.87.87,0,1,0,.88.87A.87.87,0,0,0,128.24,331.74Zm13.38,0a.87.87,0,1,0,.87.87A.88.88,0,0,0,141.62,331.74Zm13.37,0a.87.87,0,1,0,.87.87A.87.87,0,0,0,155,331.74Zm13.37,0a.87.87,0,1,0,.87.87A.87.87,0,0,0,168.36,331.74Zm13.37,0a.87.87,0,1,0,.88.87A.87.87,0,0,0,181.73,331.74Zm13.38,0a.87.87,0,1,0,.87.87A.87.87,0,0,0,195.11,331.74ZM108.18,322a.88.88,0,1,0,.88.87A.87.87,0,0,0,108.18,322Zm13.38,0a.88.88,0,1,0,.87.87A.87.87,0,0,0,121.56,322Zm13.37,0a.88.88,0,1,0,.87.87A.87.87,0,0,0,134.93,322Zm13.37,0a.88.88,0,0,0,0,1.75.88.88,0,1,0,0-1.75Zm13.38,0a.88.88,0,1,0,.87.87A.87.87,0,0,0,161.68,322Zm13.37,0a.88.88,0,1,0,.87.87A.87.87,0,0,0,175.05,322Zm13.37,0a.88.88,0,1,0,.87.87A.87.87,0,0,0,188.42,322ZM94.81,340.83a.87.87,0,1,0,.87.87A.87.87,0,0,0,94.81,340.83Zm-6.68,9.73a.88.88,0,1,0,.87.87A.87.87,0,0,0,88.13,350.56Zm13.37,0a.88.88,0,1,0,.87.87A.87.87,0,0,0,101.5,350.56Zm13.37,0a.88.88,0,1,0,.87.87A.87.87,0,0,0,114.87,350.56Zm13.37,0a.88.88,0,0,0,0,1.75.88.88,0,1,0,0-1.75Zm13.38,0a.88.88,0,1,0,.87.87A.88.88,0,0,0,141.62,350.56Zm13.37,0a.88.88,0,1,0,.87.87A.87.87,0,0,0,155,350.56Zm13.37,0a.88.88,0,1,0,.87.87A.87.87,0,0,0,168.36,350.56Zm13.37,0a.88.88,0,0,0,0,1.75.88.88,0,1,0,0-1.75Zm13.38,0a.88.88,0,1,0,.87.87A.87.87,0,0,0,195.11,350.56Zm-86.93-9.73a.87.87,0,1,0,.88.87A.87.87,0,0,0,108.18,340.83Zm13.38,0a.87.87,0,1,0,.87.87A.87.87,0,0,0,121.56,340.83Zm13.37,0a.87.87,0,1,0,.87.87A.87.87,0,0,0,134.93,340.83Zm13.37,0a.87.87,0,1,0,.88.87A.87.87,0,0,0,148.3,340.83Zm13.38,0a.87.87,0,1,0,.87.87A.87.87,0,0,0,161.68,340.83Zm13.37,0a.87.87,0,1,0,.87.87A.87.87,0,0,0,175.05,340.83Zm13.37,0a.87.87,0,1,0,.87.87A.87.87,0,0,0,188.42,340.83Z" style="fill:#fff"></path><path d="M157.08,217.77,125.44,353.1h-41c11.32-53.37,34.91-107.66,68.39-133A19.57,19.57,0,0,1,157.08,217.77Z" style="fill:#263238"></path><path d="M183.64,220.05s1.22,17.42-1.95,17.78c-9.75,1.11-20.89-12.11-21.53-14.22-.16-.54.35-14.1.77-24.64.27-6.78.51-12.31.51-12.31l25.25,13.79-2.84,18.29Z" style="fill:#dd6a57"></path><path d="M186.69,200.45l-2.84,18.29A37.12,37.12,0,0,1,160.93,199c.27-6.78.51-12.31.51-12.31l3.18,1.6Z" style="fill:#263238"></path><path d="M209.9,172.26c3.67,32.28-15.25,38.12-22.21,38.91-6.32.71-27.93,2.33-34.91-29.4s6.86-43.64,21.23-46S206.23,140,209.9,172.26Z" style="fill:#dd6a57"></path><path d="M203.39,168c-.77-.06-1.46-.24-2.21-.37a3.6,3.6,0,0,1-2.19-.81,1.16,1.16,0,0,1-.06-1.41,2.88,2.88,0,0,1,2.79-.79,4.22,4.22,0,0,1,2.71,1.38A1.23,1.23,0,0,1,203.39,168Z" style="fill:#263238"></path><path d="M181,169.69a21,21,0,0,0,2.17-.56,3.59,3.59,0,0,0,2.11-1,1.16,1.16,0,0,0-.06-1.41,2.91,2.91,0,0,0-2.86-.55,4.2,4.2,0,0,0-2.57,1.61A1.23,1.23,0,0,0,181,169.69Z" style="fill:#263238"></path><path d="M185.64,177.69c0-.08-.17.12-.16.21.22,2.2.09,4.76-1.85,5.62-.06,0,0,.14,0,.13C186.07,183.14,186.19,179.74,185.64,177.69Z" style="fill:#263238"></path><path d="M183.51,175.52c-3.57,0-3.37,7.1-.06,7.13S186.5,175.55,183.51,175.52Z" style="fill:#263238"></path><path d="M182.12,175.93c-.61.42-1.2,1.15-2,1.25s-1.55-.62-2.14-1.32c-.06-.08-.12,0-.12.08,0,1.37.59,2.76,2.06,2.92s2.27-1.09,2.57-2.47C182.6,176.13,182.37,175.76,182.12,175.93Z" style="fill:#263238"></path><path d="M199.46,176.3c0-.08.17.1.17.19,0,2.22.32,4.76,2.34,5.45.06,0,.05.13,0,.12C199.5,181.77,199.08,178.39,199.46,176.3Z" style="fill:#263238"></path><path d="M201.39,174c3.55-.34,4,6.79.68,7.11S198.41,174.24,201.39,174Z" style="fill:#263238"></path><path d="M202.9,174.33c.59.35,1.19,1,1.86,1s1.32-.8,1.77-1.57c.05-.08.11,0,.12.07.11,1.36-.25,2.8-1.55,3.14s-2.12-.8-2.53-2.14C202.5,174.59,202.67,174.19,202.9,174.33Z" style="fill:#263238"></path><path d="M187.19,194.62c.52.53,1,1.25,1.84,1.34a6,6,0,0,0,2.39-.52.08.08,0,0,1,.09.12,3,3,0,0,1-2.83,1.15,2.34,2.34,0,0,1-1.7-2C187,194.59,187.12,194.55,187.19,194.62Z" style="fill:#263238"></path><path d="M196.12,186.27s.58,3.28.65,4.84c0,.15-.37.23-.9.28a.07.07,0,0,1-.06,0,7.44,7.44,0,0,1-7.3-2.48.16.16,0,0,1,.22-.23,11.13,11.13,0,0,0,6.84,1.67c.09-.43-1.19-5.59-.95-5.62a13.67,13.67,0,0,1,3.57.67c-1-6.88-3.14-13.53-4.05-20.39a.21.21,0,0,1,.4-.12c2.71,6.82,4.06,14.7,5.3,21.77C200,187.55,196.75,186.51,196.12,186.27Z" style="fill:#263238"></path><path d="M182.33,188.92a10.14,10.14,0,1,1,10.14-12.39h0a10.14,10.14,0,0,1-10.14,12.39ZM182.8,170a8.42,8.42,0,0,0-2.17.22,8.77,8.77,0,1,0,2.17-.22Z" style="fill:#FFC727"></path><path d="M205.49,186.66c-3.88-.1-7.3-4.16-7.78-9.42a12.09,12.09,0,0,1,1.48-7.26A6.32,6.32,0,0,1,210,169a12.1,12.1,0,0,1,2.78,6.87c.51,5.56-2.44,10.4-6.58,10.79A5,5,0,0,1,205.49,186.66Zm-.56-18.88a4.34,4.34,0,0,0-.51,0,5.42,5.42,0,0,0-4.07,2.88,10.87,10.87,0,0,0-1.3,6.44c.45,4.82,3.57,8.5,7,8.18s5.81-4.5,5.36-9.32a10.77,10.77,0,0,0-2.45-6.09A5.55,5.55,0,0,0,204.93,167.78Z" style="fill:#FFC727"></path><path d="M192.24,177.73l-1-1c1.42-1.42,4.8-3.48,7.51-1.07l-.9,1C195.45,174.55,192.37,177.6,192.24,177.73Z" style="fill:#FFC727"></path><path d="M147.48,184.48l-1.25-.51c.24-.58,2.4-5.74,5.37-6.51,2.78-.71,21-.69,21.81-.69v1.36c-5.23,0-19.31.09-21.46.64C150,179.28,148.06,183.07,147.48,184.48Z" style="fill:#FFC727"></path><path d="M154.6,179.83c7.52-.06,7.27-11.9,7.27-11.9s8.51-.92,8.91-14.68c0,0,4.23,8.23,15.82,9.74,2.45.32-5.86-5.89-5.86-5.89s10,8.73,28.15,5.06c1.28-.26-1.78-19.45-16.19-25.77s-27.24-2.39-35.94,6.77c0,0-10.4,5-11.41,15S151.68,179.85,154.6,179.83Z" style="fill:#263238"></path><path d="M158.19,183.67s-7.36-9.95-11.89-7.3,1.19,17.2,6.64,19.07a5.49,5.49,0,0,0,7.28-3.15Z" style="fill:#dd6a57"></path><path d="M148,180.5c-.08,0-.1.12,0,.15,3.83,1.43,5.91,4.89,7.41,8.49-1.17-1.37-2.72-2.1-4.56-.71-.1.07,0,.23.11.2a3.38,3.38,0,0,1,3.74,1.08,16.24,16.24,0,0,1,1.87,3c.18.33.79.14.65-.25l0-.09C157.17,187.5,153.24,180.85,148,180.5Z" style="fill:#263238"></path><path d="M156,193.92a1.14,1.14,0,1,1-1.13-1.13A1.14,1.14,0,0,1,156,193.92Z" style="fill:#fff"></path><path d="M152.77,192a.72.72,0,1,1-.72-.72A.72.72,0,0,1,152.77,192Z" style="fill:#fff"></path><path d="M146.85,182.8l-2.21.54a.45.45,0,0,1-.55-.33h0a.46.46,0,0,1,.33-.55l2.21-.55a.46.46,0,0,1,.55.34h0A.46.46,0,0,1,146.85,182.8Z" style="fill:#FFC727"></path><path d="M146.55,181.37l-2.27.22a.45.45,0,0,1-.49-.41h0a.44.44,0,0,1,.4-.49l2.27-.23a.45.45,0,0,1,.49.41h0A.46.46,0,0,1,146.55,181.37Z" style="fill:#FFC727"></path><path d="M185.14,225.41c.14,1.91.23,3.81.18,5.72a31.14,31.14,0,0,1-.52,5.64c-.39,1.81-.93,3.7-2.22,4.9s-3.26,1-5,.42c-3.54-1.14-6.72-3.36-9.74-5.63q-2.26-1.72-4.36-3.68a40.56,40.56,0,0,1-4-4.11,41.9,41.9,0,0,0,7.87,8.37,41.35,41.35,0,0,0,4.67,3.41,24.29,24.29,0,0,0,5.24,2.57,9.46,9.46,0,0,0,3,.46,4.9,4.9,0,0,0,1.55-.3,4.46,4.46,0,0,0,1.34-.86,6.89,6.89,0,0,0,1.63-2.57,13,13,0,0,0,.72-2.85A36.57,36.57,0,0,0,185.14,225.41Z" style="fill:#263238"></path><path d="M196.09,328.79s-5.35-10.53,2.12-13.6,11.07,8.19,11.07,8.19Z" style="fill:#455a64"></path><path d="M240.64,399.79h0l-1.07,11.51-.33,3.8-2.94-2.45-8.85-7.45h0v0l-31.53-76.84,13.19-5.41,31.53,76.85Z" style="fill:#455a64"></path><polygon points="239.58 411.31 239.24 415.11 236.3 412.66 239.58 411.31" style="fill:#37474f"></polygon><rect x="194.64" y="325.11" width="16.64" height="3.3" transform="translate(-108.86 101.52) rotate(-22.31)" style="fill:#37474f"></rect><rect x="196.03" y="328.49" width="16.64" height="3.3" transform="translate(-110.04 102.3) rotate(-22.31)" style="fill:#37474f"></rect><polygon points="197.28 334.83 202.25 332.79 210.92 361.71 209.04 362.36 197.28 334.83" style="fill:#37474f"></polygon><path d="M129.22,234.9C88.54,265.53,37.21,345.75,45,365.65c7.11,18.17,69.58,36.43,106.36,41.45,7,1,11.91-58.76,4.46-60.07-13.31-2.33-43.49-15.29-44.38-15.51-1.91-.47,29.76-68.77,40.24-90.15C166.28,211.58,147,221.49,129.22,234.9Z" style="fill:#dd6a57"></path><path d="M230.39,360.84c-.73,6.73-17.17,3.54-17.17,3.54a12.46,12.46,0,0,1,4.29,7.33c.69,5.1-7,8.41-7,8.41a15.45,15.45,0,0,1,3.29,8.46c.17,4.94-7.11,9.4-7.11,9.4a13.5,13.5,0,0,1-1.79,9.25c-4.81,7.22-18.05,6.83-26.47,6.67s-32.14-8.49-36.82-9.62l.56-54s38-10,47.82-8.43C198.3,343.16,231.49,350.56,230.39,360.84Z" style="fill:#dd6a57"></path><path d="M213.11,364.17c-8.5-3.55-17.83-5.05-26.85-6.41-.2,0-.25.29,0,.31,9,1.25,17.86,4.92,26.78,6.52A.22.22,0,0,0,213.11,364.17Z" style="fill:#263238"></path><path d="M210.35,379.42a23.61,23.61,0,0,0-6.19-1.05c-2.22-.22-4.43-.41-6.66-.55q-6.66-.45-13.35-.56c-.19,0-.25.3,0,.32,4.43.3,8.85.67,13.27,1.16q3.3.36,6.62.78a28.66,28.66,0,0,0,6.26.5A.32.32,0,0,0,210.35,379.42Z" style="fill:#263238"></path><path d="M206.5,398c-1.66-.72-3.83-.57-5.62-.65q-3-.13-6.08-.31c-4.06-.23-8.11-.46-12.15-.83-.2,0-.25.29,0,.31,4.1.4,8.2.85,12.31,1.21q3,.27,6.05.5c1.72.14,3.85.5,5.53,0A.11.11,0,0,0,206.5,398Z" style="fill:#263238"></path><path d="M133.17,287.78s-40.49-22.13-41.34-22.5c0,0,17.59-18.79,37.66-33.5,14.52-10.65,25.08-15.63,28.77-13.84,3,1.44.54,8.27-.59,12.59C152.18,251.51,133.17,287.78,133.17,287.78Z" style="fill:#FFC727"></path><path d="M129.12,238.49a.88.88,0,1,1-.88-.87A.87.87,0,0,1,129.12,238.49Zm12.5-.87a.87.87,0,1,0,.87.87A.88.88,0,0,0,141.62,237.62Zm13.37,0a.87.87,0,0,0-.87.87.86.86,0,0,0,.8.86c.19-.53.37-1.06.55-1.58A.81.81,0,0,0,155,237.62Zm-20-9.72-.94.63h0a.85.85,0,0,0,0,.23.88.88,0,1,0,1-.86Zm13.26,0a.87.87,0,1,0,.88.87A.87.87,0,0,0,148.3,227.89Zm-46.8,28.55a.88.88,0,1,0,.87.88A.87.87,0,0,0,101.5,256.44Zm13.37,0a.88.88,0,1,0,.87.88A.87.87,0,0,0,114.87,256.44Zm13.37,0a.88.88,0,1,0,.88.88A.87.87,0,0,0,128.24,256.44Zm13.38,0a.88.88,0,1,0,0,1.75.88.88,0,0,0,0-1.75Zm-20.06-9.73a.87.87,0,1,0,.87.87A.87.87,0,0,0,121.56,246.71Zm13.37,0a.87.87,0,1,0,.87.87A.87.87,0,0,0,134.93,246.71Zm13.37,0a.87.87,0,1,0,.88.87A.87.87,0,0,0,148.3,246.71ZM94.81,265.53a.88.88,0,1,0,.87.87A.87.87,0,0,0,94.81,265.53Zm20.06,9.74a.87.87,0,1,0,.87.87A.87.87,0,0,0,114.87,275.27Zm13.37,0a.87.87,0,1,0,.88.87A.87.87,0,0,0,128.24,275.27Zm-20.06-9.74a.88.88,0,1,0,.88.87A.87.87,0,0,0,108.18,265.53Zm13.38,0a.88.88,0,1,0,.87.87A.87.87,0,0,0,121.56,265.53Zm13.37,0a.88.88,0,1,0,.87.87A.87.87,0,0,0,134.93,265.53Zm-.87,19.7a.85.85,0,0,0,.17.52l.7-1.39A.87.87,0,0,0,134.06,285.23ZM155,218.8a.87.87,0,1,0,.87.87A.87.87,0,0,0,155,218.8Z" style="fill:#fff"></path></g><g id="freepik--Device--inject-9"><path d="M384.79,365.18H353.34c-2.69,0,1.2-7.64,11-10.57S387.88,362.32,384.79,365.18Z" style="fill:#37474f"></path><path d="M372.45,365.18a7.31,7.31,0,0,1,.23-2.63,9.51,9.51,0,0,1,1-2.47,8,8,0,0,1,1.75-2,6.19,6.19,0,0,1,2.36-1.22A20.52,20.52,0,0,0,376,358.6a14.07,14.07,0,0,0-1.44,2A27.83,27.83,0,0,0,372.45,365.18Z" style="fill:#263238"></path><path d="M376.18,357.91a13,13,0,0,1,2.81.92,16,16,0,0,1,2.58,1.47,10,10,0,0,1,2.2,2.07,4.32,4.32,0,0,1,1,2.81,6.17,6.17,0,0,0-1.61-2.29,17.11,17.11,0,0,0-2.19-1.77C379.45,360,377.81,359,376.18,357.91Z" style="fill:#263238"></path><polygon points="461.29 348.53 321.2 348.53 343.48 244.23 483.57 244.23 461.29 348.53" style="fill:#455a64"></polygon><polygon points="466.47 348.53 326.38 348.53 348.66 244.23 488.75 244.23 466.47 348.53" style="fill:#37474f"></polygon><polygon points="390.91 311.13 387.63 311.13 392.62 287.74 395.9 287.74 390.91 311.13" style="fill:#263238"></polygon><polygon points="397.4 311.13 394.11 311.13 399.1 287.74 402.38 287.74 397.4 311.13" style="fill:#263238"></polygon><polygon points="403.88 311.13 400.59 311.13 405.58 287.74 408.87 287.74 403.88 311.13" style="fill:#263238"></polygon><polygon points="410.36 311.13 407.08 311.13 412.06 287.74 415.35 287.74 410.36 311.13" style="fill:#263238"></polygon><polygon points="416.84 311.13 413.56 311.13 418.55 287.74 421.83 287.74 416.84 311.13" style="fill:#263238"></polygon><polygon points="423.33 311.13 420.04 311.13 425.03 287.74 428.31 287.74 423.33 311.13" style="fill:#263238"></polygon><polygon points="429.81 311.13 426.52 311.13 431.51 287.74 434.8 287.74 429.81 311.13" style="fill:#263238"></polygon><polygon points="426.85 375.76 357.95 375.76 357.95 370.42 426.85 368.19 426.85 375.76" style="fill:#455a64"></polygon><polygon points="445.58 375.76 408.59 375.76 386.31 317.32 423.3 317.32 445.58 375.76" style="fill:#455a64"></polygon><polygon points="451.67 375.76 414.68 375.76 392.4 317.32 429.39 317.32 451.67 375.76" style="fill:#263238"></polygon><polygon points="346.15 371.14 258.8 371.14 258.8 365.35 346.15 362.94 346.15 371.14" style="fill:#455a64"></polygon></g><g id="freepik--Books--inject-9"><rect x="40.91" y="441.19" width="105.74" height="13.34" style="fill:#37474f"></rect><rect x="61.65" y="441.19" width="4.31" height="13.34" style="fill:#455a64"></rect><rect x="123.88" y="441.19" width="10.33" height="13.34" style="fill:#455a64"></rect><path d="M85.93,444.73l-2.53,3.51a.26.26,0,0,1-.22.12h0a.24.24,0,0,1-.23-.12l-2.53-3.5v6.49a.28.28,0,0,1-.55,0v-7.31a.27.27,0,0,1,.11-.22l0,0a.28.28,0,0,1,.39.07l2.8,3.89,2.8-3.89a.28.28,0,0,1,.39-.07l.07.09a.3.3,0,0,1,0,.15v7.31a.28.28,0,0,1-.27.27.27.27,0,0,1-.27-.27Z" style="fill:#fff"></path><path d="M92.94,449.46h-3.6l-.7,1.86a.28.28,0,0,1-.26.18h-.1a.29.29,0,0,1-.16-.36l2.74-7.32a.29.29,0,0,1,.27-.17.26.26,0,0,1,.27.17l2.75,7.32a.3.3,0,0,1-.15.36h-.1a.29.29,0,0,1-.26-.18Zm-3.4-.56h3.2l-1.59-4.24Z" style="fill:#fff"></path><path d="M96.82,444.15H94.44a.28.28,0,0,1-.28-.28.28.28,0,0,1,.28-.27h5.3a.28.28,0,0,1,.27.27.28.28,0,0,1-.27.28H97.36v7.08a.28.28,0,0,1-.27.27.28.28,0,0,1-.27-.27Z" style="fill:#fff"></path><path d="M106.69,447.82h-4.06v3.41a.28.28,0,0,1-.55,0v-7.36a.28.28,0,0,1,.55,0v3.41h4.06v-3.41a.28.28,0,0,1,.27-.27.28.28,0,0,1,.28.27v7.36a.28.28,0,0,1-.28.27.28.28,0,0,1-.27-.27Z" style="fill:#fff"></path><rect x="40.91" y="384.98" width="105.74" height="17.2" style="fill:#FFC727"></rect><path d="M92.06,396.26a.24.24,0,0,1,.35,0,4.37,4.37,0,0,0,2.6,1,2.94,2.94,0,0,0,1.74-.52,1.44,1.44,0,0,0,.67-1.17,1.25,1.25,0,0,0-.64-1.08,5.11,5.11,0,0,0-1.83-.65h0a5,5,0,0,1-1.86-.66,1.63,1.63,0,0,1-.81-1.38,1.83,1.83,0,0,1,.82-1.48,3.25,3.25,0,0,1,1.91-.57,4.41,4.41,0,0,1,2.43.91.25.25,0,0,1,.07.35.24.24,0,0,1-.34.07,3.9,3.9,0,0,0-2.16-.84,2.85,2.85,0,0,0-1.62.48,1.38,1.38,0,0,0-.62,1.08,1.13,1.13,0,0,0,.59,1,4.66,4.66,0,0,0,1.69.6h0a5.3,5.3,0,0,1,2,.72,1.78,1.78,0,0,1,.87,1.49,2,2,0,0,1-.89,1.58,3.49,3.49,0,0,1-2,.62,4.89,4.89,0,0,1-2.91-1.14A.28.28,0,0,1,92.06,396.26Z" style="fill:#fff"></path><path d="M103.7,389.73a4.2,4.2,0,0,1,2.55.87.28.28,0,0,1,0,.39.27.27,0,0,1-.39.06,3.55,3.55,0,0,0-2.21-.77,3.45,3.45,0,1,0,0,6.9,3.39,3.39,0,0,0,2.19-.76.27.27,0,0,1,.39.06.27.27,0,0,1,0,.4,4.19,4.19,0,0,1-2.55.86,4,4,0,1,1,0-8Z" style="fill:#fff"></path><path d="M108.72,390.11a.27.27,0,0,1,.27-.27.28.28,0,0,1,.28.27v7.36a.28.28,0,0,1-.28.27.28.28,0,0,1-.27-.27Z" style="fill:#fff"></path><path d="M112.07,390.11a.28.28,0,0,1,.28-.27h4.06a.28.28,0,0,1,0,.55h-3.78v3.13h3.3a.28.28,0,0,1,0,.55h-3.3v3.11h3.78a.28.28,0,0,1,.27.29.28.28,0,0,1-.27.27h-4.09a.28.28,0,0,1-.25-.27Z" style="fill:#fff"></path><path d="M119.33,391v6.47a.28.28,0,0,1-.27.27.28.28,0,0,1-.27-.27v-7.25a.28.28,0,0,1,.1-.3.28.28,0,0,1,.39.07l4.78,6.63v-6.43a.28.28,0,0,1,.55,0v7.28a.28.28,0,0,1-.28.27.25.25,0,0,1-.21-.11s0,0-.05,0Z" style="fill:#fff"></path><path d="M131.21,389.73a4.2,4.2,0,0,1,2.55.87.27.27,0,0,1,0,.39.26.26,0,0,1-.38.06,3.57,3.57,0,0,0-2.21-.77,3.45,3.45,0,1,0,0,6.9,3.41,3.41,0,0,0,2.19-.76.27.27,0,0,1,.39.06.28.28,0,0,1,0,.4,4.19,4.19,0,0,1-2.55.86,4,4,0,1,1,0-8Z" style="fill:#fff"></path><path d="M136.14,390.11a.28.28,0,0,1,.27-.27h4.06a.28.28,0,0,1,0,.55H136.7v3.13H140a.28.28,0,0,1,0,.55h-3.3v3.11h3.77a.27.27,0,0,1,.27.29.27.27,0,0,1-.27.27h-4.08a.27.27,0,0,1-.25-.27Z" style="fill:#fff"></path><rect x="49.81" y="384.98" width="26.57" height="17.2" style="fill:#455a64"></rect><rect x="54.81" y="387.38" width="16.58" height="3.02" style="fill:#FFC727"></rect><rect x="54.81" y="392.07" width="16.58" height="3.02" style="fill:#FFC727"></rect><rect x="54.81" y="396.75" width="16.58" height="3.02" style="fill:#FFC727"></rect><rect x="31.03" y="402.17" width="108" height="17.63" style="fill:#37474f"></rect><rect x="93.99" y="407.89" width="25.94" height="6.19" style="fill:#FFC727"></rect><path d="M132.94,411a3.43,3.43,0,1,1-3.43-3.43A3.43,3.43,0,0,1,132.94,411Z" style="fill:#FFC727"></path><path d="M41.11,407a.27.27,0,0,1,.27-.27h4.06a.26.26,0,0,1,.27.27.27.27,0,0,1-.27.28H41.66v3.12H45a.28.28,0,0,1,.27.29A.28.28,0,0,1,45,411h-3.3v3.11h3.78a.28.28,0,0,1,0,.55H41.35a.26.26,0,0,1-.24-.27Z" style="fill:#fff"></path><path d="M48.37,407.89v6.46a.28.28,0,0,1-.55,0v-7.24a.26.26,0,0,1,.11-.3.28.28,0,0,1,.38.06l4.78,6.64v-6.43a.28.28,0,0,1,.27-.27.28.28,0,0,1,.29.27v7.27a.28.28,0,0,1-.29.27.24.24,0,0,1-.21-.1s0,0,0,0Z" style="fill:#fff"></path><path d="M59.61,411.07a.27.27,0,0,1-.28-.27.27.27,0,0,1,.28-.28h2.47a.28.28,0,0,1,.25.28v2.75a.33.33,0,0,1-.11.2,4,4,0,0,1-2.55.87,4,4,0,1,1,0-8,4.12,4.12,0,0,1,2.57.9.28.28,0,0,1,0,.38.3.3,0,0,1-.4,0,3.49,3.49,0,1,0-2.2,6.14,3.53,3.53,0,0,0,2.09-.68v-2.32Z" style="fill:#fff"></path><path d="M64.82,414.62h0a.28.28,0,0,1-.27-.27V407a.28.28,0,0,1,.27-.27.27.27,0,0,1,.28.27v7.07h3.78a.28.28,0,1,1,0,.55Z" style="fill:#fff"></path><path d="M71,407a.28.28,0,0,1,.27-.27.28.28,0,0,1,.29.27v7.35a.28.28,0,0,1-.29.27.28.28,0,0,1-.27-.27Z" style="fill:#fff"></path><path d="M74,413.14a.24.24,0,0,1,.35,0,4.38,4.38,0,0,0,2.6,1,3,3,0,0,0,1.73-.52,1.48,1.48,0,0,0,.68-1.18,1.27,1.27,0,0,0-.64-1.08,5.32,5.32,0,0,0-1.83-.64h0A4.91,4.91,0,0,1,75,410a1.62,1.62,0,0,1-.82-1.37,1.84,1.84,0,0,1,.83-1.48,3.22,3.22,0,0,1,1.9-.58,4.34,4.34,0,0,1,2.44.92.25.25,0,0,1,.07.35.24.24,0,0,1-.34.06,4,4,0,0,0-2.17-.83,2.82,2.82,0,0,0-1.61.47,1.4,1.4,0,0,0-.62,1.09,1.14,1.14,0,0,0,.59,1,4.49,4.49,0,0,0,1.69.59h0a5.47,5.47,0,0,1,2,.73,1.75,1.75,0,0,1,.87,1.48A2,2,0,0,1,79,414a3.44,3.44,0,0,1-2,.62,4.89,4.89,0,0,1-2.91-1.14A.25.25,0,0,1,74,413.14Z" style="fill:#fff"></path><path d="M86.5,411H82.44v3.4a.27.27,0,0,1-.28.27.28.28,0,0,1-.27-.27V407a.28.28,0,0,1,.27-.27.27.27,0,0,1,.28.27v3.4H86.5V407a.28.28,0,0,1,.56,0v7.35a.28.28,0,0,1-.56,0Z" style="fill:#fff"></path><rect x="35.75" y="369.42" width="54.56" height="15.57" style="fill:#263238"></rect><rect x="90.31" y="369.42" width="50.44" height="15.57" style="fill:#263238"></rect><rect x="35.75" y="371.03" width="54.56" height="12.34" style="fill:#fff"></rect><path d="M40.5,373.57q8.58-.13,17.15-.18l7.76-.06,17.15.06c5.71,0,2,.09,7.75.18-5.71.09-2,.15-7.75.18l-17.15.05-7.76-.05C51.93,373.72,46.22,373.65,40.5,373.57Z" style="fill:#dbdbdb"></path><path d="M40.5,376q8.58-.14,17.15-.18l7.76-.06,17.15.06c5.71,0,2,.09,7.75.18-5.71.09-2,.15-7.75.18l-17.15.05-7.76-.05C51.93,376.14,46.22,376.07,40.5,376Z" style="fill:#dbdbdb"></path><path d="M40.5,378.41q8.58-.14,17.15-.18l7.76-.06,17.15.06c5.71,0,2,.09,7.75.18-5.71.09-2,.15-7.75.18l-17.15.05-7.76-.05Q49.07,378.55,40.5,378.41Z" style="fill:#dbdbdb"></path><path d="M40.5,380.83q8.58-.13,17.15-.18l7.76-.06,17.15.06c5.71,0,2,.09,7.75.18-5.71.09-2,.15-7.75.18l-17.15.05L57.65,381Q49.07,381,40.5,380.83Z" style="fill:#dbdbdb"></path><rect x="101.49" y="369.42" width="7.1" height="15.57" style="fill:#455a64"></rect><rect x="133.37" y="369.42" width="4.77" height="15.57" style="fill:#455a64"></rect><rect x="73.14" y="419.79" width="61.45" height="21.39" transform="translate(207.73 860.98) rotate(180)" style="fill:#FFC727"></rect><rect x="26.48" y="419.79" width="46.66" height="21.39" transform="translate(99.62 860.98) rotate(180)" style="fill:#FFC727"></rect><rect x="73.14" y="422.01" width="61.45" height="16.95" transform="translate(207.73 860.98) rotate(180)" style="fill:#fff"></rect><path d="M130.61,435.48q-7.19.13-14.36.18l-14.37.06-14.37-.06q-7.19,0-14.37-.18,7.19-.14,14.37-.18l14.37-.05,14.37.05C121,435.33,125.82,435.4,130.61,435.48Z" style="fill:#dbdbdb"></path><path d="M130.61,432.16q-7.19.12-14.36.18l-14.37.05-14.37-.05q-7.19-.06-14.37-.18,7.19-.14,14.37-.19l14.37-.05,14.37.06Q123.44,432,130.61,432.16Z" style="fill:#dbdbdb"></path><path d="M130.61,428.83q-7.19.14-14.36.18l-14.37.05L87.51,429q-7.19,0-14.37-.18,7.19-.13,14.37-.18l14.37-.06,14.37.06Q123.44,428.7,130.61,428.83Z" style="fill:#dbdbdb"></path><path d="M130.61,425.5q-7.19.13-14.36.18l-14.37.06-14.37-.06q-7.19,0-14.37-.18c4.79-.08,9.58-.15,14.37-.18l14.37-.05,14.37.05C121,425.35,125.82,425.42,130.61,425.5Z" style="fill:#dbdbdb"></path><rect x="33.91" y="419.79" width="8.73" height="21.39" style="fill:#455a64"></rect></g></svg>